<?xml version="1.0" standalone="no"?>
<svg xmlns:xlink="http://www.w3.org/1999/xlink" id="wave" style="transform:rotate(0deg); transition: 0.3s" viewBox="0 0 1440 220" version="1.1" xmlns="http://www.w3.org/2000/svg"><defs><linearGradient id="sw-gradient-0" x1="0" x2="0" y1="1" y2="0"><stop stop-color="rgba(255, 255, 255, 1)" offset="0%"/><stop stop-color="rgba(255, 255, 255, 1)" offset="100%"/></linearGradient></defs><path style="transform:translate(0, 0px); opacity:1" fill="url(#sw-gradient-0)" d="M0,44L18.5,55C36.9,66,74,88,111,95.3C147.7,103,185,95,222,84.3C258.5,73,295,59,332,51.3C369.2,44,406,44,443,44C480,44,517,44,554,58.7C590.8,73,628,103,665,102.7C701.5,103,738,73,775,58.7C812.3,44,849,44,886,62.3C923.1,81,960,117,997,135.7C1033.8,154,1071,154,1108,146.7C1144.6,139,1182,125,1218,106.3C1255.4,88,1292,66,1329,66C1366.2,66,1403,88,1440,99C1476.9,110,1514,110,1551,124.7C1587.7,139,1625,169,1662,168.7C1698.5,169,1735,139,1772,132C1809.2,125,1846,139,1883,124.7C1920,110,1957,66,1994,47.7C2030.8,29,2068,37,2105,40.3C2141.5,44,2178,44,2215,62.3C2252.3,81,2289,117,2326,132C2363.1,147,2400,139,2437,124.7C2473.8,110,2511,88,2548,88C2584.6,88,2622,110,2640,121L2658.5,132L2658.5,220L2640,220C2621.5,220,2585,220,2548,220C2510.8,220,2474,220,2437,220C2400,220,2363,220,2326,220C2289.2,220,2252,220,2215,220C2178.5,220,2142,220,2105,220C2067.7,220,2031,220,1994,220C1956.9,220,1920,220,1883,220C1846.2,220,1809,220,1772,220C1735.4,220,1698,220,1662,220C1624.6,220,1588,220,1551,220C1513.8,220,1477,220,1440,220C1403.1,220,1366,220,1329,220C1292.3,220,1255,220,1218,220C1181.5,220,1145,220,1108,220C1070.8,220,1034,220,997,220C960,220,923,220,886,220C849.2,220,812,220,775,220C738.5,220,702,220,665,220C627.7,220,591,220,554,220C516.9,220,480,220,443,220C406.2,220,369,220,332,220C295.4,220,258,220,222,220C184.6,220,148,220,111,220C73.8,220,37,220,18,220L0,220Z"/></svg>