<?xml version="1.0" standalone="no"?><svg xmlns="http://www.w3.org/2000/svg" viewBox="0 0 1440 320"><path fill="#fff" fill-opacity="1" d="M0,96L24,85.3C48,75,96,53,144,42.7C192,32,240,32,288,32C336,32,384,32,432,42.7C480,53,528,75,576,85.3C624,96,672,96,720,106.7C768,117,816,139,864,128C912,117,960,75,1008,74.7C1056,75,1104,117,1152,117.3C1200,117,1248,75,1296,85.3C1344,96,1392,160,1416,192L1440,224L1440,320L1416,320C1392,320,1344,320,1296,320C1248,320,1200,320,1152,320C1104,320,1056,320,1008,320C960,320,912,320,864,320C816,320,768,320,720,320C672,320,624,320,576,320C528,320,480,320,432,320C384,320,336,320,288,320C240,320,192,320,144,320C96,320,48,320,24,320L0,320Z"></path></svg>