<?xml version="1.0" standalone="no"?><svg xmlns="http://www.w3.org/2000/svg" viewBox="0 0 1440 320"><path fill="#fff" fill-opacity="1" d="M0,96L24,85.3C48,75,96,53,144,69.3C192,85,240,139,288,154.7C336,171,384,149,432,128C480,107,528,85,576,69.3C624,53,672,43,720,37.3C768,32,816,32,864,53.3C912,75,960,117,1008,144C1056,171,1104,181,1152,192C1200,203,1248,213,1296,202.7C1344,192,1392,160,1416,144L1440,128L1440,320L1416,320C1392,320,1344,320,1296,320C1248,320,1200,320,1152,320C1104,320,1056,320,1008,320C960,320,912,320,864,320C816,320,768,320,720,320C672,320,624,320,576,320C528,320,480,320,432,320C384,320,336,320,288,320C240,320,192,320,144,320C96,320,48,320,24,320L0,320Z"></path></svg>