<svg width="19" height="21" viewBox="0 0 19 21" fill="none" xmlns="http://www.w3.org/2000/svg">
<path d="M15.6083 4.15336C14.4962 3.45103 13.6942 2.32679 13.4437 1.01693C13.3898 0.733991 13.3598 0.442522 13.3598 0.144531H9.81124L9.80555 13.9243C9.74601 15.4675 8.43511 16.7061 6.82859 16.7061C6.32897 16.7061 5.85887 16.5852 5.44469 16.374C4.49517 15.8899 3.84541 14.9257 3.84541 13.816C3.84541 12.2222 5.18375 10.9254 6.82807 10.9254C7.13508 10.9254 7.42967 10.9745 7.70821 11.0588V7.54865C7.41984 7.51052 7.1268 7.48694 6.82807 7.48694C3.22672 7.48694 0.296875 10.3259 0.296875 13.816C0.296875 15.9571 1.40068 17.8519 3.08538 18.9977C4.14621 19.7196 5.43692 20.1445 6.82859 20.1445C10.4299 20.1445 13.3598 17.3056 13.3598 13.816V6.82825C14.7514 7.79597 16.4569 8.36637 18.2969 8.36637V4.92794C17.3059 4.92794 16.3828 4.64249 15.6083 4.15336Z" fill="#04338B"/>
</svg>
